<?xml version="1.0" encoding="UTF-8"?>
<svg version="1.1" xmlns="http://www.w3.org/2000/svg" width="1024" height="1024">
<path d="M0 0 C337.92 0 675.84 0 1024 0 C1024 337.92 1024 675.84 1024 1024 C686.08 1024 348.16 1024 0 1024 C0 686.08 0 348.16 0 0 Z " fill="#FEFEFE" transform="translate(0,0)"/>
<path d="M0 0 C9.7371842 6.13551198 15.29334686 11.99879632 18.1015625 23.32421875 C18.29064985 26.01451112 18.39554184 28.60071003 18.39208984 31.28808594 C18.39880707 32.05172455 18.40552429 32.81536316 18.41244507 33.60214233 C18.43132911 36.10852702 18.43534459 38.61464249 18.4375 41.12109375 C18.44393539 42.87835801 18.45066429 44.63562123 18.45767212 46.3928833 C18.4696215 50.07119223 18.47335544 53.74940742 18.47216797 57.42773438 C18.4719651 62.11585514 18.49924456 66.80336755 18.53371239 71.49134445 C18.55607207 75.12044983 18.56000272 78.74941101 18.55894852 82.37857819 C18.56129172 84.10556378 18.57004213 85.83255414 18.58561325 87.55947113 C18.68784567 100.07014715 18.15502748 111.09700711 9.03515625 120.66796875 C4.90105244 124.20910009 0.36653057 126.1217981 -4.8984375 127.32421875 C-4.9190625 128.58234375 -4.9396875 129.84046875 -4.9609375 131.13671875 C-4.97253906 131.84441406 -4.98414063 132.55210937 -4.99609375 133.28125 C-4.98106967 135.52727336 -4.98106967 135.52727336 -3.8984375 138.32421875 C0.99759869 140.70607419 6.24284866 140.75585838 11.58984375 141.078125 C14.1015625 141.32421875 14.1015625 141.32421875 15.1015625 142.32421875 C15.22693991 144.46729771 15.27730614 146.61500761 15.2890625 148.76171875 C15.30324219 149.93605469 15.31742187 151.11039063 15.33203125 152.3203125 C15.1015625 155.32421875 15.1015625 155.32421875 13.1015625 157.32421875 C1.84594103 158.61406681 -8.96603732 157.42646528 -18.33984375 150.52734375 C-23.49071776 145.78436584 -27.42352984 140.08121046 -28.1328125 132.9765625 C-28.1461154 131.09087581 -28.0352205 129.204985 -27.8984375 127.32421875 C-28.7028125 127.28296875 -29.5071875 127.24171875 -30.3359375 127.19921875 C-37.08021525 125.54272948 -43.19076797 121.22902578 -46.8984375 115.32421875 C-50.62635571 107.98907034 -52.04440223 101.81732034 -52.07543945 93.5715332 C-52.08201065 92.80658035 -52.08858185 92.0416275 -52.09535217 91.25349426 C-52.11500001 88.73149501 -52.12672959 86.20955512 -52.13671875 83.6875 C-52.14079428 82.82196188 -52.1448698 81.95642376 -52.14906883 81.06465721 C-52.16989474 76.48199074 -52.18421066 71.89935388 -52.19360352 67.31665039 C-52.20465215 62.60374847 -52.23904411 57.89132071 -52.27877522 53.17858601 C-52.30502553 49.53666863 -52.31330285 45.89486276 -52.31688499 42.25285912 C-52.32173032 40.5166625 -52.33328515 38.78047017 -52.35192299 37.04436684 C-52.46988063 25.32719091 -52.06476106 14.88740705 -43.671875 5.85546875 C-40.42871345 3.05520591 -36.76909767 1.12155139 -32.8984375 -0.67578125 C-32.18171875 -1.04316406 -31.465 -1.41054688 -30.7265625 -1.7890625 C-21.76354125 -4.59929154 -8.39819981 -4.22877552 0 0 Z " fill="#F14D4C" transform="translate(420.8984375,414.67578125)"/>
<path d="M0 0 C0.83577072 -0.00807175 1.67154144 -0.01614349 2.53263855 -0.02445984 C4.31234653 -0.03832979 6.09208144 -0.04903884 7.87182617 -0.05688477 C10.55636948 -0.07390741 13.23961869 -0.11774023 15.92382812 -0.16210938 C29.64375699 -0.28899242 40.43511842 0.86810733 50.6640625 10.8671875 C58.26012214 19.32738603 60.39987997 27.55299671 60.09375 38.85546875 C59.58559992 48.21964998 58.38749717 57.63491226 51.16796875 64.23828125 C47.27572737 67.23828125 47.27572737 67.23828125 44.79296875 67.23828125 C45.3240625 67.83253906 45.85515625 68.42679687 46.40234375 69.0390625 C57.64781231 82.23401922 59.16587627 97.1305697 58.91796875 113.98828125 C58.90894531 115.17421875 58.89992188 116.36015625 58.890625 117.58203125 C58.86735372 120.46767032 58.83466559 123.3528598 58.79296875 126.23828125 C55.02257818 128.12347654 50.4414228 127.42304119 46.29296875 127.42578125 C45.31714844 127.43802734 44.34132813 127.45027344 43.3359375 127.46289062 C42.40394531 127.46482422 41.47195313 127.46675781 40.51171875 127.46875 C39.65513672 127.47285889 38.79855469 127.47696777 37.91601562 127.48120117 C35.79296875 127.23828125 35.79296875 127.23828125 33.79296875 125.23828125 C33.52172852 122.52368164 33.52172852 122.52368164 33.484375 119.0859375 C33.45923828 117.83361328 33.43410156 116.58128906 33.40820312 115.29101562 C33.37351207 112.66605885 33.34216848 110.04105532 33.31445312 107.41601562 C33.10218219 97.26325206 32.42357866 87.36612566 25.79296875 79.23828125 C23.49666881 78.09013128 21.71598789 77.93058316 19.16796875 77.67578125 C17.94207031 77.55009766 17.94207031 77.55009766 16.69140625 77.421875 C16.06492187 77.36128906 15.4384375 77.30070312 14.79296875 77.23828125 C14.79518936 77.84993637 14.79740997 78.46159149 14.79969788 79.09178162 C14.82174997 85.43398456 14.83687502 91.77617669 14.84790039 98.1184082 C14.85294216 100.48820437 14.8597754 102.8579974 14.8684082 105.2277832 C14.88048065 108.62582164 14.88619846 112.0238191 14.890625 115.421875 C14.89578629 116.4885289 14.90094757 117.5551828 14.90626526 118.65415955 C14.90637856 120.12557152 14.90637856 120.12557152 14.90649414 121.62670898 C14.90871475 122.49496811 14.91093536 123.36322723 14.91322327 124.25779724 C14.79296875 126.23828125 14.79296875 126.23828125 13.79296875 127.23828125 C10.32088068 127.48927049 6.83556255 127.42350221 3.35546875 127.42578125 C1.8849707 127.44415039 1.8849707 127.44415039 0.38476562 127.46289062 C-0.55173828 127.46482422 -1.48824219 127.46675781 -2.453125 127.46875 C-3.31607178 127.47285889 -4.17901855 127.47696777 -5.06811523 127.48120117 C-7.20703125 127.23828125 -7.20703125 127.23828125 -9.20703125 125.23828125 C-9.45592022 123.05842495 -9.45592022 123.05842495 -9.45426941 120.29698181 C-9.4584639 119.25232254 -9.46265839 118.20766327 -9.46697998 117.13134766 C-9.46136047 115.98061768 -9.45574097 114.8298877 -9.44995117 113.64428711 C-9.45184952 112.4361586 -9.45374786 111.22803009 -9.45570374 109.98329163 C-9.45877964 106.66517456 -9.45288873 103.34730526 -9.44275069 100.02921748 C-9.43398251 96.56233158 -9.43572739 93.09545003 -9.43611145 89.6285553 C-9.43517435 83.80695342 -9.42648362 77.9854036 -9.4128418 72.16381836 C-9.39710842 65.42458948 -9.39184392 58.68541762 -9.39257735 51.9461717 C-9.39318681 45.47272315 -9.38808936 38.99929325 -9.37978554 32.5258503 C-9.37624689 29.76629046 -9.37442146 27.00673722 -9.37389183 24.24717522 C-9.37270466 20.39905643 -9.36300824 16.5509855 -9.35229492 12.70288086 C-9.35274811 11.55012665 -9.35320129 10.39737244 -9.35366821 9.20968628 C-9.34940323 8.16784683 -9.34513824 7.12600739 -9.34074402 6.05259705 C-9.33906817 5.14169784 -9.33739233 4.23079863 -9.3356657 3.29229641 C-9.03139836 -1.56619775 -3.77002414 0.03436986 0 0 Z " fill="#191919" transform="translate(727.20703125,414.76171875)"/>
<path d="M0 0 C0.89009766 -0.00128906 1.78019531 -0.00257813 2.69726562 -0.00390625 C3.63376953 -0.00003906 4.57027344 0.00382812 5.53515625 0.0078125 C6.46779297 0.00394531 7.40042969 0.00007813 8.36132812 -0.00390625 C9.25271484 -0.00261719 10.14410156 -0.00132812 11.0625 0 C11.88355225 0.00112793 12.70460449 0.00225586 13.55053711 0.00341797 C15.59765625 0.1328125 15.59765625 0.1328125 17.59765625 1.1328125 C18.36051941 2.75093079 18.36051941 2.75093079 19.09057617 4.8762207 C19.36814255 5.67248367 19.64570892 6.46874664 19.9316864 7.28913879 C20.22751114 8.16180893 20.52333588 9.03447906 20.828125 9.93359375 C21.14163406 10.83917526 21.45514313 11.74475677 21.77815247 12.67778015 C22.78740248 15.59795937 23.78647169 18.52150513 24.78515625 21.4453125 C25.43877001 23.34333434 26.09305973 25.24112354 26.74804688 27.13867188 C28.05180223 30.91771239 29.35193927 34.69797041 30.64990234 38.47900391 C32.88009321 44.96574714 35.14594303 51.43985436 37.41825867 57.91194153 C37.69055801 58.68760971 37.96285736 59.46327789 38.2434082 60.26245117 C38.48170853 60.94023117 38.72000885 61.61801117 38.9655304 62.31632996 C39.52266838 63.91732667 40.06159719 65.52463531 40.59765625 67.1328125 C40.6057431 66.32292877 40.61382996 65.51304504 40.62216187 64.67861938 C40.70001665 57.05613519 40.7872792 49.43384495 40.88518333 41.81159401 C40.93518627 37.89266137 40.98151568 33.97375621 41.01953125 30.0546875 C41.05633395 26.27445017 41.10267968 22.49444059 41.15571976 18.71439743 C41.17429052 17.27030802 41.18938853 15.82616974 41.20100021 14.3820076 C41.21781617 12.36346187 41.2479873 10.34504062 41.27880859 8.32666016 C41.29213226 7.17638336 41.30545593 6.02610657 41.31918335 4.8409729 C41.59765625 2.1328125 41.59765625 2.1328125 43.59765625 0.1328125 C45.64477539 -0.11010742 45.64477539 -0.11010742 48.1328125 -0.09765625 C49.02419922 -0.09572266 49.91558594 -0.09378906 50.83398438 -0.09179688 C51.76662109 -0.07955078 52.69925781 -0.06730469 53.66015625 -0.0546875 C54.59666016 -0.05404297 55.53316406 -0.05339844 56.49804688 -0.05273438 C63.45746401 -0.00737974 63.45746401 -0.00737974 64.59765625 1.1328125 C64.69799864 2.73506433 64.72841548 4.34174024 64.73136902 5.9471283 C64.73776649 7.50988747 64.73776649 7.50988747 64.74429321 9.10421753 C64.74361343 10.83334885 64.74361343 10.83334885 64.74291992 12.59741211 C64.74627853 13.8037883 64.74963715 15.01016449 64.75309753 16.25309753 C64.7609933 19.57126775 64.76427648 22.88937542 64.76491332 26.20755076 C64.76586082 28.97358556 64.76953728 31.73961429 64.77308542 34.50564677 C64.78123753 41.02940238 64.78366897 47.55314418 64.78295898 54.0769043 C64.78235801 60.81554447 64.79291192 67.55410463 64.80870265 74.29272455 C64.82176074 80.07022668 64.82714361 85.84770262 64.82650357 91.6252194 C64.82624807 95.07938257 64.82912787 98.53347469 64.83968163 101.98762321 C64.85112426 105.83805366 64.84662642 109.68837364 64.84057617 113.53881836 C64.84619568 114.68954834 64.85181519 115.84027832 64.85760498 117.02587891 C64.85341049 118.07053818 64.849216 119.11519745 64.84489441 120.19151306 C64.84543918 121.1027893 64.84598394 122.01406553 64.84654522 122.9529562 C64.59765625 125.1328125 64.59765625 125.1328125 62.59765625 127.1328125 C59.47441559 127.63029531 56.31857989 127.54939579 53.16015625 127.5703125 C52.28810547 127.60318359 51.41605469 127.63605469 50.51757812 127.66992188 C49.67904297 127.67701172 48.84050781 127.68410156 47.9765625 127.69140625 C46.82522827 127.71158813 46.82522827 127.71158813 45.65063477 127.73217773 C43.59765625 127.1328125 43.59765625 127.1328125 41.99804688 125.07275391 C40.35946774 121.63276612 39.04172946 118.13574805 37.8125 114.53515625 C37.55191299 113.78738419 37.29132599 113.03961212 37.02284241 112.2691803 C36.18834558 109.87134823 35.36142797 107.47098978 34.53515625 105.0703125 C33.46299859 101.97454384 32.38774919 98.87985226 31.3125 95.78515625 C30.89803116 94.58951553 30.89803116 94.58951553 30.47518921 93.36972046 C26.26778165 81.26084839 21.92290664 69.19997107 17.59765625 57.1328125 C17.59179001 57.98028046 17.58592377 58.82774841 17.57987976 59.70089722 C17.52204308 67.67661226 17.45001895 75.65204456 17.36194134 83.62748528 C17.31716008 87.72803672 17.2779215 91.82848702 17.2512207 95.92919922 C17.22526447 99.88456892 17.18491779 103.83955102 17.13446999 107.79468155 C17.11774898 109.30574864 17.10626738 110.81688285 17.10004234 112.32802963 C17.09045743 114.44029394 17.06246913 116.55155489 17.0300293 118.66357422 C17.01892624 119.86714569 17.00782318 121.07071716 16.99638367 122.3107605 C16.86480362 123.24203766 16.73322357 124.17331482 16.59765625 125.1328125 C13.51796562 127.18593958 12.8779692 127.38279004 9.40234375 127.36328125 C8.60441406 127.36134766 7.80648438 127.35941406 6.984375 127.35742188 C6.15550781 127.34517578 5.32664062 127.33292969 4.47265625 127.3203125 C3.63605469 127.31966797 2.79945313 127.31902344 1.9375 127.31835938 C-4.26201212 127.27314413 -4.26201212 127.27314413 -5.40234375 126.1328125 C-5.50054548 124.51556865 -5.5286631 122.89402617 -5.52932739 121.27380371 C-5.53214722 120.22210495 -5.53496704 119.17040619 -5.53787231 118.08683777 C-5.53584808 116.92316177 -5.53382385 115.75948578 -5.53173828 114.56054688 C-5.5334906 113.34281082 -5.53524292 112.12507477 -5.53704834 110.87043762 C-5.54070656 107.52134134 -5.53983341 104.17230648 -5.53666925 100.82321358 C-5.53414529 97.32562296 -5.53648329 93.82803505 -5.53805542 90.33044434 C-5.53987701 84.45580573 -5.53747109 78.58117967 -5.53271484 72.70654297 C-5.52727224 65.90542199 -5.52903491 59.10433099 -5.53454125 52.30321074 C-5.53907268 46.47392122 -5.53972278 40.64464076 -5.53710258 34.81535006 C-5.53553997 31.32938425 -5.5353456 27.84343256 -5.53863907 24.35746765 C-5.5420521 20.47332587 -5.53732755 16.58921792 -5.53173828 12.70507812 C-5.53376251 11.54140213 -5.53578674 10.37772614 -5.53787231 9.17878723 C-5.53505249 8.12708847 -5.53223267 7.07538971 -5.52932739 5.99182129 C-5.52895037 5.07224892 -5.52857334 4.15267654 -5.52818489 3.20523834 C-5.29527701 -0.63042555 -3.36051723 0.0046229 0 0 Z " fill="#1B1B1B" transform="translate(254.40234375,414.8671875)"/>
<path d="M0 0 C1.02996094 -0.00128906 2.05992187 -0.00257813 3.12109375 -0.00390625 C4.74724609 0.00189453 4.74724609 0.00189453 6.40625 0.0078125 C7.49035156 0.00394531 8.57445312 0.00007813 9.69140625 -0.00390625 C10.72136719 -0.00261719 11.75132812 -0.00132812 12.8125 0 C14.24045898 0.00169189 14.24045898 0.00169189 15.69726562 0.00341797 C17.90625 0.1328125 17.90625 0.1328125 18.90625 1.1328125 C19.01564218 4.14998566 19.0604886 7.14510564 19.06396484 10.16308594 C19.07158592 11.58503265 19.07158592 11.58503265 19.07936096 13.03570557 C19.09009085 15.10209976 19.09870067 17.16850576 19.10548019 19.23491669 C19.1172318 22.50451304 19.13667568 25.77397505 19.15859985 29.04351807 C19.22033613 38.34244318 19.27425656 47.64135617 19.30761719 56.94042969 C19.32855117 62.62158915 19.36384844 68.30250676 19.40837479 73.98352814 C19.42254967 76.15083215 19.43126057 78.31817899 19.43442917 80.48552704 C19.43933229 83.51892924 19.46247652 86.55168903 19.48974609 89.58496094 C19.48673996 90.48178589 19.48373383 91.37861084 19.4806366 92.3026123 C19.54407219 97.04908025 19.78552874 100.29622239 22.90625 104.1328125 C26.03485495 105.69711498 28.46227925 105.48908534 31.90625 105.1328125 C34.30036466 103.0287583 35.6934426 101.30098777 36.27417564 98.1131382 C36.4325974 95.6010409 36.4548397 93.11790938 36.4362793 90.60083008 C36.44501068 89.64746262 36.45374207 88.69409515 36.46273804 87.71183777 C36.48709735 84.5668145 36.48370454 81.4224493 36.48046875 78.27734375 C36.4929119 76.09208555 36.50724557 73.90683737 36.52339172 71.72160339 C36.56143045 65.97337785 36.57660856 60.22532468 36.58618164 54.47698975 C36.60592257 45.26513992 36.66266438 36.05342161 36.71494484 26.84171104 C36.73033085 23.61873097 36.73748924 20.39581616 36.74308777 17.17280579 C36.75010124 15.2074073 36.75720194 13.24200913 36.7644043 11.27661133 C36.76361122 9.92462143 36.76361122 9.92462143 36.76280212 8.5453186 C36.79303573 2.35924103 36.79303573 2.35924103 37.90625 0.1328125 C41.71873426 0.10394014 45.5311907 0.08605758 49.34375 0.0703125 C50.43236328 0.06193359 51.52097656 0.05355469 52.64257812 0.04492188 C53.67705078 0.04169922 54.71152344 0.03847656 55.77734375 0.03515625 C56.73568115 0.02991943 57.69401855 0.02468262 58.68139648 0.01928711 C60.90625 0.1328125 60.90625 0.1328125 61.90625 1.1328125 C62.02293634 4.17948127 62.07428784 7.20376699 62.08325195 10.25146484 C62.08982315 11.20929871 62.09639435 12.16713257 62.10316467 13.1539917 C62.12296452 16.34224519 62.13457986 19.53045126 62.14453125 22.71875 C62.14860678 23.8073595 62.1526823 24.89596901 62.15688133 26.01756668 C62.17777825 31.78791364 62.19205986 37.55823662 62.20141602 43.32861328 C62.21244132 49.27459153 62.24678601 55.22019147 62.28658772 61.16603661 C62.31282132 65.74733139 62.32111423 70.32853739 62.32469749 74.90990067 C62.32955211 77.10021115 62.34113379 79.29051798 62.35973549 81.48075485 C62.48091437 96.70480148 62.39716778 108.52847788 51.2734375 120.03515625 C48.0448551 122.89612778 44.95117751 124.68939438 40.90625 126.1328125 C39.83375 126.5453125 38.76125 126.9578125 37.65625 127.3828125 C27.94432091 129.32519832 18.12556467 128.85230539 9.49609375 123.69140625 C1.13745011 117.67709004 -3.57110592 110.02259911 -6.09375 100.1328125 C-6.47982511 96.75955568 -6.48524899 93.43151118 -6.45019531 90.0390625 C-6.45223969 89.07375107 -6.45428406 88.10843964 -6.45639038 87.11387634 C-6.45937584 83.95332307 -6.44099656 80.79330291 -6.421875 77.6328125 C-6.41881486 75.42846811 -6.41694068 73.22412178 -6.41619873 71.01977539 C-6.41161062 66.41691607 -6.39723537 61.81423317 -6.375 57.21142578 C-6.34658558 51.29846707 -6.33577359 45.38564625 -6.3313179 39.47262573 C-6.32717336 34.92949027 -6.31736616 30.3863829 -6.30544281 25.84326172 C-6.29973137 23.66146063 -6.29497557 21.47965682 -6.29117584 19.29785156 C-6.28434096 16.26232072 -6.27072541 13.22690172 -6.25488281 10.19140625 C-6.25376495 9.28341782 -6.25264709 8.37542938 -6.25149536 7.43992615 C-6.19982421 0.00734576 -6.19982421 0.00734576 0 0 Z " fill="#1B1B1B" transform="translate(644.09375,414.8671875)"/>
<path d="M0 0 C0.98484375 -0.00128906 1.9696875 -0.00257813 2.984375 -0.00390625 C4.02078125 -0.00003906 5.0571875 0.00382812 6.125 0.0078125 C7.67960938 0.00201172 7.67960938 0.00201172 9.265625 -0.00390625 C10.25046875 -0.00261719 11.2353125 -0.00132812 12.25 0 C13.16007812 0.00112793 14.07015625 0.00225586 15.0078125 0.00341797 C17.125 0.1328125 17.125 0.1328125 18.125 1.1328125 C18.23439218 4.14998566 18.2792386 7.14510564 18.28271484 10.16308594 C18.29033592 11.58503265 18.29033592 11.58503265 18.29811096 13.03570557 C18.30884085 15.10209976 18.31745067 17.16850576 18.32423019 19.23491669 C18.3359818 22.50451304 18.35542568 25.77397505 18.37734985 29.04351807 C18.43908613 38.34244318 18.49300656 47.64135617 18.52636719 56.94042969 C18.54730117 62.62158915 18.58259844 68.30250676 18.62712479 73.98352814 C18.64129967 76.15083215 18.65001057 78.31817899 18.65317917 80.48552704 C18.65808229 83.51892924 18.68122652 86.55168903 18.70849609 89.58496094 C18.70548996 90.48178589 18.70248383 91.37861084 18.6993866 92.3026123 C18.76282219 97.04908025 19.00427874 100.29622239 22.125 104.1328125 C25.17483996 105.65773248 27.7673369 105.36843798 31.125 105.1328125 C33.22858381 103.59018437 33.96554159 102.45172933 35.125 100.1328125 C35.24287738 97.02638493 35.30027303 93.94112664 35.31445312 90.83374023 C35.32274643 89.86945099 35.33103973 88.90516174 35.33958435 87.91165161 C35.35700793 85.81362503 35.3721684 83.71557874 35.38536072 81.61752129 C35.40633644 78.30274668 35.43336213 74.98807146 35.46203613 71.6733551 C35.53197547 63.44146634 35.59134724 55.20950719 35.65106201 46.97753906 C35.70189772 40.0235938 35.75669058 33.06970217 35.81687927 26.11583138 C35.84355612 22.84021194 35.86430769 19.56458779 35.8848877 16.28892517 C35.90148256 14.29344441 35.91835368 12.29796593 35.93554688 10.30249023 C35.93973129 9.38350449 35.94391571 8.46451874 35.94822693 7.51768494 C36.01115442 1.24665808 36.01115442 1.24665808 37.125 0.1328125 C38.82058726 0.03349097 40.52025747 0.00201243 42.21875 0 C43.24871094 -0.00128906 44.27867187 -0.00257813 45.33984375 -0.00390625 C46.96599609 0.00189453 46.96599609 0.00189453 48.625 0.0078125 C49.70910156 0.00394531 50.79320312 0.00007813 51.91015625 -0.00390625 C52.94011719 -0.00261719 53.97007812 -0.00132812 55.03125 0 C56.45920898 0.00169189 56.45920898 0.00169189 57.91601562 0.00341797 C60.125 0.1328125 60.125 0.1328125 61.125 1.1328125 C61.24170035 4.21528688 61.29303963 7.27563771 61.30200195 10.35913086 C61.30857315 11.32832458 61.31514435 12.29751831 61.32191467 13.29608154 C61.34171264 16.52160715 61.35332868 19.74708592 61.36328125 22.97265625 C61.36735678 24.07354647 61.3714323 25.17443668 61.37563133 26.30868721 C61.39652623 32.14271992 61.41080942 37.97672892 61.42016602 43.81079102 C61.43119839 49.82636774 61.46555197 55.84157127 61.50533772 61.85701656 C61.5315507 66.4888831 61.53986235 71.12066172 61.54344749 75.7525959 C61.54830645 77.96885238 61.55990059 80.18510511 61.57848549 82.40128899 C61.6029611 85.51513506 61.60189553 88.62802956 61.5949707 91.74194336 C61.60778076 92.64884415 61.62059082 93.55574493 61.63378906 94.49012756 C61.55045515 104.8367068 57.69699858 112.50764126 50.63671875 119.9296875 C42.76406973 126.83509037 34.61636073 128.4427126 24.453125 128.3515625 C16.08197528 127.80134609 9.96336931 124.39542641 3.625 119.0078125 C-1.79100485 112.77940692 -5.99770213 106.22561752 -6.00198364 97.82417297 C-6.00480347 96.97028992 -6.00762329 96.11640686 -6.01052856 95.23664856 C-6.00850433 94.30817612 -6.0064801 93.37970367 -6.00439453 92.4230957 C-6.00614685 91.43900726 -6.00789917 90.45491882 -6.00970459 89.44100952 C-6.01410582 86.18851966 -6.01119185 82.93608416 -6.0078125 79.68359375 C-6.00848587 77.42726125 -6.00945618 75.17092881 -6.01071167 72.91459656 C-6.01218616 68.18776763 -6.01004143 63.46095759 -6.00537109 58.73413086 C-5.99966416 52.66073516 -6.00296048 46.58738355 -6.00894356 40.51398945 C-6.01254751 35.85676233 -6.01141152 31.19954577 -6.00881577 26.54231834 C-6.00814654 24.30190208 -6.00897475 22.06148488 -6.01129532 19.82106972 C-6.01382018 16.69880232 -6.00998405 13.57660765 -6.00439453 10.4543457 C-6.00641876 9.51980057 -6.00844299 8.58525543 -6.01052856 7.62239075 C-5.9851296 0.00741783 -5.9851296 0.00741783 0 0 Z " fill="#191919" transform="translate(175.875,414.8671875)"/>
<path d="M0 0 C1.04590805 0.00222061 2.0918161 0.00444122 3.16941833 0.00672913 C4.35056717 0.00680466 5.531716 0.00688019 6.74865723 0.00695801 C8.03404892 0.01211929 9.31944061 0.01728058 10.64378357 0.02259827 C12.60601112 0.02472069 12.60601112 0.02472069 14.60787964 0.02688599 C18.09150591 0.03071042 21.57509071 0.04054005 25.05870056 0.05158997 C28.6111444 0.06180569 32.16359491 0.06638395 35.71604919 0.07142639 C42.69067564 0.0821624 49.66527449 0.09923792 56.63987732 0.12025452 C57.68380616 14.1658425 55.05507161 24.6829166 49.76487732 37.62025452 C49.07119555 39.38180018 48.38047259 41.14451367 47.69261169 42.90834045 C46.32905402 46.39234689 44.9502373 49.86955137 43.55491638 53.34095764 C41.01660751 59.65865187 38.57696873 66.0128788 36.13987732 72.37025452 C35.74631042 73.38603577 35.35274353 74.40181702 34.94725037 75.44837952 C31.74948353 83.72351141 28.79169856 92.07181094 25.91722107 100.46400452 C24.63987732 104.12025452 24.63987732 104.12025452 23.63987732 106.12025452 C24.63430847 106.1150177 25.62873962 106.10978088 26.65330505 106.10438538 C30.33021653 106.08633411 34.00712407 106.07482206 37.68406677 106.06532288 C39.27782346 106.06028294 40.87157551 106.05345102 42.46531677 106.04481506 C44.75137985 106.03273453 47.03738199 106.02702297 49.32347107 106.02259827 C50.0401445 106.01743698 50.75681793 106.0122757 51.49520874 106.00695801 C53.21051404 106.00676189 54.92568998 106.05833444 56.63987732 106.12025452 C58.79720565 108.27758285 57.82508651 113.06824205 57.82737732 116.05775452 C57.83962341 116.89500061 57.85186951 117.7322467 57.86448669 118.59486389 C57.86642029 119.39601624 57.86835388 120.19716858 57.87034607 121.02259827 C57.87445496 121.75986145 57.87856384 122.49712463 57.88279724 123.25672913 C57.63987732 125.12025452 57.63987732 125.12025452 55.63987732 127.12025452 C53.24215698 127.36749268 53.24215698 127.36749268 50.1962738 127.36317444 C49.0584697 127.36625107 47.92066559 127.3693277 46.74838257 127.37249756 C45.51503677 127.36531204 44.28169098 127.35812653 43.01097107 127.35072327 C41.75099808 127.35026505 40.49102509 127.34980682 39.19287109 127.34933472 C36.52541206 127.34630916 33.85829662 127.33948036 31.19090271 127.32606506 C27.76523704 127.30905792 24.33971872 127.30525121 20.91401577 127.30601025 C17.65465287 127.30567361 14.39532109 127.29683985 11.13597107 127.28822327 C9.28291603 127.28655403 9.28291603 127.28655403 7.39242554 127.28485107 C6.25777359 127.27847122 5.12312164 127.27209137 3.9540863 127.26551819 C2.94974045 127.26170639 1.94539459 127.25789459 0.91061401 127.25396729 C-1.36012268 127.12025452 -1.36012268 127.12025452 -2.36012268 126.12025452 C-2.63045696 123.4722074 -2.77950938 120.90101496 -2.86012268 118.24525452 C-2.91426331 117.55044983 -2.96840393 116.85564514 -3.02418518 116.13978577 C-3.23343818 107.48567959 0.50527276 99.74314797 3.59568787 91.83161926 C5.40534823 87.13261632 7.09475359 82.39054704 8.79612732 77.65150452 C9.51588433 75.65790838 10.23593905 73.6644197 10.95628357 71.67103577 C11.68421965 69.65413449 12.41208403 67.63720733 13.13987732 65.62025452 C14.5870812 61.60958006 16.03501785 57.5991715 17.48362732 53.58900452 C17.83183533 52.6239801 18.18004333 51.65895569 18.5388031 50.66468811 C20.24913402 45.93263906 21.97394557 41.20674157 23.72972107 36.49134827 C24.05734436 35.61031433 24.38496765 34.7292804 24.72251892 33.82154846 C25.33992694 32.16508986 25.96014335 30.50967442 26.58360291 28.85548401 C28.09734183 25.09121478 28.09734183 25.09121478 28.63987732 21.12025452 C27.2391095 21.08267029 27.2391095 21.08267029 25.81004333 21.04432678 C22.35662543 20.94938524 18.90338772 20.85014194 15.45018005 20.74794006 C13.95348463 20.70453638 12.45673793 20.66286539 10.95994568 20.62294006 C8.8127342 20.56536836 6.66578211 20.50163736 4.51878357 20.43666077 C3.22528992 20.40000305 1.93179626 20.36334534 0.59910583 20.32557678 C-2.36012268 20.12025452 -2.36012268 20.12025452 -3.36012268 19.12025452 C-3.45849478 17.78981827 -3.4909086 16.45432107 -3.49293518 15.12025452 C-3.49422424 14.31587952 -3.49551331 13.51150452 -3.49684143 12.68275452 C-3.49297424 11.83712952 -3.48910706 10.99150452 -3.48512268 10.12025452 C-3.48898987 9.27462952 -3.49285706 8.42900452 -3.49684143 7.55775452 C-3.49555237 6.75337952 -3.49426331 5.94900452 -3.49293518 5.12025452 C-3.49180725 4.37775452 -3.49067932 3.63525452 -3.48951721 2.87025452 C-3.28549019 0.11088531 -2.7592722 0.14059224 0 0 Z " fill="#191919" transform="translate(797.3601226806641,414.87974548339844)"/>
<path d="M0 0 C0.98484375 -0.00128906 1.9696875 -0.00257813 2.984375 -0.00390625 C4.02078125 -0.00003906 5.0571875 0.00382812 6.125 0.0078125 C7.67960937 0.00201172 7.67960937 0.00201172 9.265625 -0.00390625 C10.25046875 -0.00261719 11.2353125 -0.00132812 12.25 0 C13.16007813 0.00112793 14.07015625 0.00225586 15.0078125 0.00341797 C17.125 0.1328125 17.125 0.1328125 18.125 1.1328125 C18.22035213 2.49889576 18.2468867 3.86986705 18.24525452 5.23927307 C18.24662918 6.12413391 18.24800385 7.00899475 18.24942017 7.92066956 C18.24582489 8.89890182 18.24222961 9.87713409 18.23852539 10.88500977 C18.23867142 11.9092807 18.23881744 12.93355164 18.2389679 13.98886108 C18.23826828 17.39233479 18.23047363 20.79575454 18.22265625 24.19921875 C18.22079224 26.55191518 18.21936826 28.904612 18.21836853 31.25730896 C18.21454199 37.46337955 18.20471055 43.6694269 18.19366455 49.87548828 C18.18345334 56.20279628 18.17887154 62.53010802 18.17382812 68.85742188 C18.1630884 81.28256232 18.14601036 93.70768548 18.125 106.1328125 C19.66208618 106.12495728 19.66208618 106.12495728 21.23022461 106.11694336 C25.01895276 106.09889281 28.80767709 106.0873803 32.59643555 106.07788086 C34.23869464 106.07284076 35.88094923 106.06600872 37.52319336 106.05737305 C39.87875479 106.04529324 42.23425709 106.03958111 44.58984375 106.03515625 C45.32839096 106.02999496 46.06693817 106.02483368 46.8278656 106.01951599 C48.59398088 106.01932 50.35997146 106.07086531 52.125 106.1328125 C54.28232833 108.29014083 53.31020919 113.08080003 53.3125 116.0703125 C53.32474609 116.90755859 53.33699219 117.74480469 53.34960938 118.60742188 C53.35154297 119.40857422 53.35347656 120.20972656 53.35546875 121.03515625 C53.35957764 121.77241943 53.36368652 122.50968262 53.36791992 123.26928711 C53.125 125.1328125 53.125 125.1328125 51.125 127.1328125 C48.80993652 127.38677979 48.80993652 127.38677979 45.88085938 127.39160156 C44.23905701 127.40105804 44.23905701 127.40105804 42.56408691 127.41070557 C41.37762573 127.4066571 40.19116455 127.40260864 38.96875 127.3984375 C37.75554077 127.40035095 36.54233154 127.4022644 35.2923584 127.40423584 C32.72338657 127.40559884 30.15440788 127.40189442 27.58544922 127.39355469 C23.64144496 127.3828571 19.69789625 127.39344644 15.75390625 127.40625 C13.26301982 127.40492843 10.77213368 127.40236608 8.28125 127.3984375 C6.50155823 127.40451019 6.50155823 127.40451019 4.68591309 127.41070557 C3.59137817 127.40440125 2.49684326 127.39809692 1.36914062 127.39160156 C0.40254517 127.39001038 -0.56405029 127.38841919 -1.55993652 127.38677979 C-3.875 127.1328125 -3.875 127.1328125 -5.875 125.1328125 C-6.12388897 122.9529562 -6.12388897 122.9529562 -6.12223816 120.19151306 C-6.12643265 119.14685379 -6.13062714 118.10219452 -6.13494873 117.02587891 C-6.12932922 115.87514893 -6.12370972 114.72441895 -6.11791992 113.53881836 C-6.11981827 112.33068985 -6.12171661 111.12256134 -6.12367249 109.87782288 C-6.12674839 106.55970581 -6.12085748 103.24183651 -6.11071944 99.92374873 C-6.10195126 96.45686283 -6.10369614 92.98998128 -6.1040802 89.52308655 C-6.1031431 83.70148467 -6.09445237 77.87993485 -6.08081055 72.05834961 C-6.06507717 65.31912073 -6.05981267 58.57994887 -6.0605461 51.84070295 C-6.06115556 45.3672544 -6.05605811 38.8938245 -6.04775429 32.42038155 C-6.04421564 29.66082171 -6.04239021 26.90126847 -6.04186058 24.14170647 C-6.04067341 20.29358768 -6.03097699 16.44551675 -6.02026367 12.59741211 C-6.02071686 11.4446579 -6.02117004 10.29190369 -6.02163696 9.10421753 C-6.01737198 8.06237808 -6.01310699 7.02053864 -6.00871277 5.9471283 C-6.00703692 5.03622909 -6.00536108 4.12532988 -6.00363445 3.18682766 C-5.75398873 -0.79947688 -3.45135604 0.00427753 0 0 Z " fill="#191919" transform="translate(501.875,414.8671875)"/>
<path d="M0 0 C1.02996094 -0.00128906 2.05992187 -0.00257813 3.12109375 -0.00390625 C4.74724609 0.00189453 4.74724609 0.00189453 6.40625 0.0078125 C7.49035156 0.00394531 8.57445312 0.00007813 9.69140625 -0.00390625 C10.72136719 -0.00261719 11.75132812 -0.00132812 12.8125 0 C14.24045898 0.00169189 14.24045898 0.00169189 15.69726562 0.00341797 C17.90625 0.1328125 17.90625 0.1328125 18.90625 1.1328125 C19.00445173 2.75005635 19.03256935 4.37159883 19.03323364 5.99182129 C19.03605347 7.04352005 19.03887329 8.09521881 19.04177856 9.17878723 C19.03975433 10.34246323 19.0377301 11.50613922 19.03564453 12.70507812 C19.03739685 13.92281418 19.03914917 15.14055023 19.04095459 16.39518738 C19.04461281 19.74428366 19.04373966 23.09331852 19.0405755 26.44241142 C19.03805154 29.94000204 19.04038954 33.43758995 19.04196167 36.93518066 C19.04378326 42.80981927 19.04137734 48.68444533 19.03662109 54.55908203 C19.03117849 61.36020301 19.03294116 68.16129401 19.0384475 74.96241426 C19.04297893 80.79170378 19.04362903 86.62098424 19.04100883 92.45027494 C19.03944622 95.93624075 19.03925185 99.42219244 19.04254532 102.90815735 C19.04595835 106.79229913 19.0412338 110.67640708 19.03564453 114.56054688 C19.03766876 115.72422287 19.03969299 116.88789886 19.04177856 118.08683777 C19.03754883 119.66438591 19.03754883 119.66438591 19.03323364 121.27380371 C19.03285662 122.19337608 19.03247959 123.11294846 19.03209114 124.06038666 C18.90625 126.1328125 18.90625 126.1328125 17.90625 127.1328125 C14.26725825 127.38437519 10.61541327 127.31803476 6.96875 127.3203125 C5.94072266 127.33255859 4.91269531 127.34480469 3.85351562 127.35742188 C2.87189453 127.35935547 1.89027344 127.36128906 0.87890625 127.36328125 C-0.47835571 127.36944458 -0.47835571 127.36944458 -1.86303711 127.37573242 C-4.09375 127.1328125 -4.09375 127.1328125 -6.09375 125.1328125 C-6.34263897 122.9529562 -6.34263897 122.9529562 -6.34098816 120.19151306 C-6.34518265 119.14685379 -6.34937714 118.10219452 -6.35369873 117.02587891 C-6.34807922 115.87514893 -6.34245972 114.72441895 -6.33666992 113.53881836 C-6.33856827 112.33068985 -6.34046661 111.12256134 -6.34242249 109.87782288 C-6.34549839 106.55970581 -6.33960748 103.24183651 -6.32946944 99.92374873 C-6.32070126 96.45686283 -6.32244614 92.98998128 -6.3228302 89.52308655 C-6.3218931 83.70148467 -6.31320237 77.87993485 -6.29956055 72.05834961 C-6.28382717 65.31912073 -6.27856267 58.57994887 -6.2792961 51.84070295 C-6.27990556 45.3672544 -6.27480811 38.8938245 -6.26650429 32.42038155 C-6.26296564 29.66082171 -6.26114021 26.90126847 -6.26061058 24.14170647 C-6.25942341 20.29358768 -6.24972699 16.44551675 -6.23901367 12.59741211 C-6.23946686 11.4446579 -6.23992004 10.29190369 -6.24038696 9.10421753 C-6.23612198 8.06237808 -6.23185699 7.02053864 -6.22746277 5.9471283 C-6.22578692 5.03622909 -6.22411108 4.12532988 -6.22238445 3.18682766 C-5.9681437 -0.87284959 -3.496076 0.00414227 0 0 Z " fill="#171717" transform="translate(571.09375,414.8671875)"/>
<path d="M0 0 C1.02802734 -0.01224609 2.05605469 -0.02449219 3.11523438 -0.03710938 C4.58766602 -0.04000977 4.58766602 -0.04000977 6.08984375 -0.04296875 C6.99468506 -0.04707764 7.89952637 -0.05118652 8.83178711 -0.05541992 C11.0625 0.1875 11.0625 0.1875 13.0625 2.1875 C13.31418228 4.34894562 13.31418228 4.34894562 13.31646729 7.08410645 C13.32210693 8.1189064 13.32774658 9.15370636 13.33355713 10.21986389 C13.32950867 11.35967209 13.32546021 12.49948029 13.32128906 13.67382812 C13.3247937 14.87059677 13.32829834 16.06736542 13.33190918 17.30039978 C13.33921799 20.58758912 13.33748435 23.87452766 13.33115101 27.16170311 C13.3260969 30.5974296 13.33078081 34.03314517 13.33392334 37.46887207 C13.33756471 43.23919607 13.33275943 49.00946892 13.32324219 54.77978516 C13.31235728 61.45653841 13.31588274 68.13316954 13.326895 74.80991983 C13.33596303 80.53649394 13.33725554 86.26303123 13.33201766 91.9896102 C13.32889528 95.41245114 13.32849592 98.83523462 13.33509064 102.2580719 C13.34192609 106.07248708 13.33245924 109.8867648 13.32128906 113.70117188 C13.32533752 114.84098007 13.32938599 115.98078827 13.33355713 117.15513611 C13.32791748 118.18993607 13.32227783 119.22473602 13.31646729 120.29089355 C13.31571323 121.19349663 13.31495918 122.0960997 13.31418228 123.02605438 C13.0625 125.1875 13.0625 125.1875 11.0625 127.1875 C8.93945312 127.44628906 8.93945312 127.44628906 6.34375 127.453125 C5.41175781 127.45570313 4.47976563 127.45828125 3.51953125 127.4609375 C2.54371094 127.45320312 1.56789063 127.44546875 0.5625 127.4375 C-0.90123047 127.44910156 -0.90123047 127.44910156 -2.39453125 127.4609375 C-3.32652344 127.45835937 -4.25851562 127.45578125 -5.21875 127.453125 C-6.07533203 127.45086914 -6.93191406 127.44861328 -7.81445312 127.44628906 C-9.9375 127.1875 -9.9375 127.1875 -11.9375 125.1875 C-12.18638897 123.0076437 -12.18638897 123.0076437 -12.18473816 120.24620056 C-12.18893265 119.20154129 -12.19312714 118.15688202 -12.19744873 117.08056641 C-12.19182922 115.92983643 -12.18620972 114.77910645 -12.18041992 113.59350586 C-12.18231827 112.38537735 -12.18421661 111.17724884 -12.18617249 109.93251038 C-12.18924839 106.61439331 -12.18335748 103.29652401 -12.17321944 99.97843623 C-12.16445126 96.51155033 -12.16619614 93.04466878 -12.1665802 89.57777405 C-12.1656431 83.75617217 -12.15695237 77.93462235 -12.14331055 72.11303711 C-12.12757717 65.37380823 -12.12231267 58.63463637 -12.1230461 51.89539045 C-12.12365556 45.4219419 -12.11855811 38.948512 -12.11025429 32.47506905 C-12.10671564 29.71550921 -12.10489021 26.95595597 -12.10436058 24.19639397 C-12.10317341 20.34827518 -12.09347699 16.50020425 -12.08276367 12.65209961 C-12.08321686 11.4993454 -12.08367004 10.34659119 -12.08413696 9.15890503 C-12.07987198 8.11706558 -12.07560699 7.07522614 -12.07121277 6.0018158 C-12.06953692 5.09091659 -12.06786108 4.18001738 -12.06613445 3.24151516 C-11.73652843 -2.02158313 -3.98596388 0.00248967 0 0 Z " fill="#1A1A1A" transform="translate(343.9375,414.8125)"/>
<path d="M0 0 C2.93087207 2.25451698 3.82814288 3.48442865 5 7 C5.11094806 9.42171609 5.16758971 11.8154633 5.17700195 14.23779297 C5.18357315 14.97147095 5.19014435 15.70514893 5.19691467 16.46105957 C5.21661969 18.88810328 5.22830286 21.31508524 5.23828125 23.7421875 C5.24235678 24.57167027 5.2464323 25.40115303 5.25063133 26.25577164 C5.27147832 30.64463298 5.28578699 35.03346316 5.29516602 39.42236328 C5.30623865 43.95422028 5.34065197 48.48558738 5.38033772 53.01727104 C5.40648205 56.50372226 5.4148558 59.99005621 5.41844749 63.47659683 C5.42331769 65.14715007 5.43494408 66.81769792 5.45348549 68.48815536 C5.4778356 70.82697189 5.47692032 73.16451348 5.4699707 75.50341797 C5.48278076 76.19138458 5.49559082 76.8793512 5.50878906 77.58816528 C5.45768912 82.31277922 4.32493008 84.67770877 1 88 C-2.14911479 89.57455739 -4.52008816 89.34799118 -8 89 C-12.30123956 86.15955878 -14.49280658 83.88856815 -16 79 C-16.26069641 75.7883606 -16.26069641 75.7883606 -16.2746582 72.11767578 C-16.27976913 71.44543976 -16.28488007 70.77320374 -16.29014587 70.08059692 C-16.30399204 67.86874367 -16.30308873 65.65720382 -16.30078125 63.4453125 C-16.3046713 61.89980963 -16.30900661 60.35430781 -16.31376648 58.80880737 C-16.32121826 55.57253552 -16.32094528 52.33637278 -16.31567383 49.10009766 C-16.30988461 44.96537708 -16.32680169 40.83110525 -16.3500185 36.69645882 C-16.3647957 33.50500911 -16.36562207 30.31366643 -16.36250877 27.12218857 C-16.36302012 25.59844958 -16.36822263 24.0747043 -16.37832069 22.55099869 C-16.39074398 20.4140792 -16.38385902 18.27802038 -16.37231445 16.14111328 C-16.37294388 14.92819611 -16.3735733 13.71527893 -16.3742218 12.46560669 C-15.841467 7.53185193 -14.57386895 3.4389659 -10.8125 0 C-6.96015728 -1.36972186 -3.89304147 -1.2135213 0 0 Z " fill="#FEFDFD" transform="translate(409,434)"/>
<path d="M0 0 C10.21343874 0 10.21343874 0 13.375 1.6875 C14.00148438 2.00074219 14.62796875 2.31398438 15.2734375 2.63671875 C18.15542557 4.91231566 19.73887318 7.27977357 20.29785156 10.9621582 C20.44037902 13.25362026 20.4583521 15.51687353 20.4375 17.8125 C20.4674707 18.96588867 20.4674707 18.96588867 20.49804688 20.14257812 C20.49343063 25.61283038 19.58518452 30.684921 16 35 C11 37 11 37 0 37 C0 24.79 0 12.58 0 0 Z " fill="#FAFAFA" transform="translate(742,435)"/>
<path d="M0 0 C0.99 0.33 1.98 0.66 3 1 C3 41.26 3 81.52 3 123 C9.27 123 15.54 123 22 123 C22 82.74 22 42.48 22 1 C22.33 1 22.66 1 23 1 C23 42.25 23 83.5 23 126 C16.07 126 9.14 126 2 126 C0 124 0 124 -0.24609566 121.81735039 C-0.24425207 120.90477533 -0.24240849 119.99220028 -0.24050903 119.05197144 C-0.24325836 118.005867 -0.24600769 116.95976257 -0.24884033 115.88195801 C-0.24164978 114.72965698 -0.23445923 113.57735596 -0.22705078 112.39013672 C-0.22734283 111.18040192 -0.22763489 109.97066711 -0.22793579 108.72427368 C-0.2267791 105.40208714 -0.21673127 102.08014749 -0.20278788 98.75800467 C-0.19030678 95.28798744 -0.18911209 91.81796712 -0.18673706 88.34793091 C-0.18051456 81.77476213 -0.16409338 75.20165967 -0.14403808 68.62852013 C-0.12170298 61.1461587 -0.11069167 53.66379414 -0.10064721 46.18140769 C-0.07972779 30.78756668 -0.04453692 15.39379188 0 0 Z " fill="#232323" transform="translate(332,416)"/>
<path d="M0 0 C4.68139254 -0.02465288 9.36274759 -0.04283739 14.04418945 -0.05493164 C15.63794614 -0.05997157 17.23169819 -0.0668035 18.82543945 -0.07543945 C21.11150253 -0.08751999 23.39750467 -0.09323155 25.68359375 -0.09765625 C26.40026718 -0.10281754 27.11694061 -0.10797882 27.85533142 -0.11329651 C29.57063672 -0.11349263 31.28581266 -0.06192007 33 0 C35.15732833 2.15732833 34.18520919 6.94798753 34.1875 9.9375 C34.19974609 10.77474609 34.21199219 11.61199219 34.22460938 12.47460938 C34.22654297 13.27576172 34.22847656 14.07691406 34.23046875 14.90234375 C34.23457764 15.63960693 34.23868652 16.37687012 34.24291992 17.13647461 C34 19 34 19 32 21 C29.60227966 21.24723816 29.60227966 21.24723816 26.55639648 21.24291992 C25.41859238 21.24599655 24.28078827 21.24907318 23.10850525 21.25224304 C21.87515945 21.24505753 20.64181366 21.23787201 19.37109375 21.23046875 C18.11112076 21.23001053 16.85114777 21.22955231 15.55299377 21.2290802 C12.88553475 21.22605464 10.2184193 21.21922585 7.55102539 21.20581055 C4.12535972 21.18880341 0.6998414 21.18499669 -2.72586155 21.18575573 C-5.98522445 21.1854191 -9.24455623 21.17658533 -12.50390625 21.16796875 C-14.35696129 21.16629951 -14.35696129 21.16629951 -16.24745178 21.16459656 C-17.9494297 21.15502678 -17.9494297 21.15502678 -19.68579102 21.14526367 C-21.1923098 21.13954597 -21.1923098 21.13954597 -22.72926331 21.13371277 C-25 21 -25 21 -26 20 C-26.07319621 17.30345146 -26.09242537 14.63308542 -26.0625 11.9375 C-26.05798828 11.17888672 -26.05347656 10.42027344 -26.04882812 9.63867188 C-26.0370068 7.75908129 -26.01907078 5.87953101 -26 4 C-24 7 -24 7 -24 18 C-5.52 18 12.96 18 32 18 C32 12.72 32 7.44 32 2 C21.44 1.67 10.88 1.34 0 1 C0 0.67 0 0.34 0 0 Z " fill="#242424" transform="translate(821,521)"/>
<path d="M0 0 C0.33 0 0.66 0 1 0 C1 40.26 1 80.52 1 122 C6.61 122 12.22 122 18 122 C19.485 122.495 19.485 122.495 21 123 C21 123.66 21 124.32 21 125 C14.07 125 7.14 125 0 125 C-0.99529655 122.01411036 -1.11108292 120.12040892 -1.08229065 117.00764465 C-1.07525116 115.97699387 -1.06821167 114.94634308 -1.06095886 113.88446045 C-1.04801285 112.75445618 -1.03506683 111.6244519 -1.02172852 110.46020508 C-1.01212097 109.26983139 -1.00251343 108.0794577 -0.99261475 106.85301208 C-0.96526688 103.58878274 -0.93336958 100.32463556 -0.89946485 97.06046891 C-0.86510281 93.64920587 -0.83653552 90.23789447 -0.80735779 86.82658386 C-0.75122277 80.36676916 -0.68986418 73.90701503 -0.62663645 67.44726628 C-0.55490778 60.09307958 -0.48899082 52.73884439 -0.42356598 45.38459933 C-0.28885151 30.25633659 -0.14682577 15.1281504 0 0 Z " fill="#272727" transform="translate(720,417)"/>
<path d="M0 0 C2.74057386 5.48114772 3.12768285 10.20806475 3.09765625 16.2734375 C3.09443359 17.42714844 3.09121094 18.58085938 3.08789062 19.76953125 C3.07951172 20.95933594 3.07113281 22.14914062 3.0625 23.375 C3.05798828 24.58800781 3.05347656 25.80101562 3.04882812 27.05078125 C3.03708354 30.03390507 3.0206584 33.01692679 3 36 C0.54724859 37.2263757 -1.0505781 37.11415314 -3.7890625 37.09765625 C-4.73007812 37.09443359 -5.67109375 37.09121094 -6.640625 37.08789062 C-7.62546875 37.07951172 -8.6103125 37.07113281 -9.625 37.0625 C-11.11386719 37.05573242 -11.11386719 37.05573242 -12.6328125 37.04882812 C-15.0886016 37.03702145 -17.54427104 37.020554 -20 37 C-20 36.01 -20 35.02 -20 34 C-13.4 34 -6.8 34 0 34 C0 22.78 0 11.56 0 0 Z " fill="#252425" transform="translate(783,505)"/>
<path d="M0 0 C0.33 0 0.66 0 1 0 C1.19592461 3.31205884 1.38032746 6.62465854 1.5625 9.9375 C1.61857422 10.88302734 1.67464844 11.82855469 1.73242188 12.80273438 C1.78076172 13.70185547 1.82910156 14.60097656 1.87890625 15.52734375 C1.9260376 16.35999756 1.97316895 17.19265137 2.02172852 18.05053711 C2 20 2 20 1 21 C-0.63472882 21.08700342 -2.27314055 21.10701063 -3.91015625 21.09765625 C-4.89951172 21.09443359 -5.88886719 21.09121094 -6.90820312 21.08789062 C-7.94912109 21.07951172 -8.99003906 21.07113281 -10.0625 21.0625 C-11.10728516 21.05798828 -12.15207031 21.05347656 -13.22851562 21.04882812 C-15.8190666 21.03699913 -18.40950559 21.02051689 -21 21 C-21 20.67 -21 20.34 -21 20 C-11.1 19.505 -11.1 19.505 -1 19 C-0.67 12.73 -0.34 6.46 0 0 Z " fill="#444344" transform="translate(588,521)"/>
</svg>
